<?xml version="1.0" standalone="no"?>
<!DOCTYPE svg PUBLIC "-//W3C//DTD SVG 20010904//EN"
 "http://www.w3.org/TR/2001/REC-SVG-20010904/DTD/svg10.dtd">
<svg version="1.0" xmlns="http://www.w3.org/2000/svg"
 width="700.000000pt" height="700.000000pt" viewBox="0 0 700.000000 700.000000"
 preserveAspectRatio="xMidYMid meet">
<metadata>
Created by potrace 1.11, written by Peter Selinger 2001-2013
</metadata>
<g transform="translate(0.000000,700.000000) scale(0.100000,-0.100000)"
fill="#000000" stroke="none">
<path d="M3430 6935 c-28 -9 -76 -40 -129 -85 -307 -260 -647 -380 -1074 -380
-217 0 -307 29 -490 154 -54 37 -122 78 -150 92 -69 32 -147 32 -208 1 -54
-28 -572 -440 -616 -490 -64 -73 -68 -182 -12 -272 115 -181 276 -491 313
-602 64 -192 91 -403 83 -633 -11 -280 -64 -527 -185 -855 -137 -371 -183
-554 -204 -802 -32 -385 67 -818 296 -1294 267 -554 619 -889 1150 -1094 61
-23 192 -68 291 -99 217 -68 302 -100 461 -176 160 -76 231 -125 336 -231 75
-76 94 -90 143 -104 102 -30 179 0 274 105 134 150 384 278 776 400 310 95
506 178 689 292 312 194 572 495 760 883 237 488 340 928 309 1314 -21 254
-57 387 -247 926 -173 492 -192 990 -54 1384 33 95 199 417 278 541 28 43 55
93 60 112 22 75 5 152 -47 209 -48 53 -574 470 -621 491 -54 26 -136 23 -199
-6 -28 -14 -98 -56 -155 -94 -187 -126 -237 -143 -448 -149 -437 -14 -793 107
-1111 377 -58 49 -99 75 -133 85 -59 18 -77 18 -136 0z m961 -2243 c27 -30 29
-39 29 -108 0 -102 -19 -135 -91 -157 -12 -4 -18 -31 -28 -116 -37 -347 -222
-640 -483 -768 -42 -21 -77 -40 -77 -43 0 -3 31 -20 69 -38 265 -126 452 -420
492 -776 l13 -110 33 -8 c51 -14 72 -57 72 -150 0 -72 -2 -80 -29 -110 l-29
-33 -862 0 -862 0 -29 33 c-27 30 -29 38 -29 110 0 92 20 134 73 151 l34 11
12 110 c37 347 224 643 483 768 42 20 77 39 77 42 0 3 -31 20 -69 38 -265 126
-453 423 -491 773 -10 85 -16 112 -28 116 -72 22 -91 55 -91 156 0 80 18 119
64 137 11 5 403 8 869 7 l849 -2 29 -33z"/>
</g>
</svg>
